<svg id="Capa_1" enable-background="new 0 0 511.958 511.958" height="512" viewBox="0 0 511.958 511.958" width="512" xmlns="http://www.w3.org/2000/svg"><g><g><path d="m498.55 218.851c-2.71-8.46-10.17-14.509-18.979-15.649-11.15-1.44-22.299-2.55-33.439-3.31-8.78-.61-16.369-6.21-19.729-14.349-.03-.09-.07-.18-.11-.27-3.37-8.13-1.98-17.449 3.81-24.089 7.33-8.42 14.439-17.079 21.299-25.989 5.43-7.03 6.42-16.589 2.35-24.489-11.91-23.089-29.409-40.588-52.498-52.498-7.9-4.07-17.459-3.08-24.489 2.35-8.91 6.86-17.569 13.969-25.989 21.299-6.64 5.79-15.959 7.18-24.089 3.81-.09-.04-.18-.08-.27-.11-8.14-3.36-13.739-10.95-14.349-19.729-.76-11.14-1.87-22.289-3.31-33.439-1.14-8.81-7.19-16.269-15.649-18.979-24.749-7.9-49.508-7.9-74.257 0-8.46 2.71-14.509 10.17-15.649 18.979-1.44 11.15-2.55 22.299-3.31 33.439-.61 8.78-6.21 16.369-14.349 19.729-.09.03-.18.07-.27.11-8.13 3.37-17.449 1.98-24.089-3.81-8.42-7.33-17.079-14.439-25.989-21.299-7.03-5.43-16.589-6.42-24.489-2.35-23.089 11.91-40.588 29.409-52.498 52.498-4.07 7.9-3.08 17.459 2.35 24.489 6.86 8.91 13.969 17.569 21.299 25.989 5.79 6.64 7.18 15.959 3.81 24.089-.04.09-.08.18-.11.27-3.36 8.14-10.95 13.739-19.729 14.349-11.14.76-22.289 1.87-33.439 3.31-8.81 1.14-16.269 7.19-18.979 15.649-7.9 24.749-7.9 49.508 0 74.257 2.71 8.46 10.17 14.509 18.979 15.649 11.15 1.44 22.299 2.55 33.439 3.31 8.78.61 16.369 6.21 19.729 14.349.03.09.07.18.11.27 3.37 8.13 1.98 17.449-3.81 24.089-7.33 8.42-14.439 17.079-21.299 25.989-5.43 7.03-6.42 16.589-2.35 24.489 11.91 23.089 29.409 40.588 52.498 52.498 7.9 4.07 17.459 3.08 24.489-2.35 8.91-6.86 17.569-13.969 25.989-21.299 6.64-5.79 15.959-7.18 24.089-3.81.09.04.18.08.27.11 8.14 3.36 13.739 10.95 14.349 19.729.76 11.14 1.87 22.289 3.31 33.439 1.14 8.81 7.19 16.269 15.649 18.979 24.749 7.9 49.508 7.9 74.257 0 8.46-2.71 14.509-10.17 15.649-18.979 1.44-11.15 2.55-22.299 3.31-33.439.61-8.78 6.21-16.369 14.349-19.729.09-.03.18-.07.27-.11 8.13-3.37 17.449-1.98 24.089 3.81 8.42 7.33 17.079 14.439 25.989 21.299 7.03 5.43 16.589 6.42 24.489 2.35 23.089-11.91 40.588-29.409 52.498-52.498 4.07-7.9 3.08-17.459-2.35-24.489-6.86-8.91-13.969-17.569-21.299-25.989-5.79-6.64-7.18-15.959-3.81-24.089.04-.09.08-.18.11-.27 3.36-8.14 10.95-13.739 19.729-14.349 11.14-.76 22.289-1.87 33.439-3.31 8.81-1.14 16.269-7.19 18.979-15.649 7.899-24.749 7.899-49.508 0-74.257zm-242.571 117.735c-44.518 0-80.607-36.089-80.607-80.607s36.089-80.607 80.607-80.607 80.607 36.089 80.607 80.607-36.089 80.607-80.607 80.607z" fill="#b9c1cb"/><path d="m85.711 407.362c-4.07-8.23-3.08-18.19 2.35-25.52 6.86-9.28 13.97-18.31 21.3-27.08 5.79-6.92 7.18-16.63 3.81-25.1-.04-.1-.08-.19-.11-.29-3.36-8.48-10.95-14.31-19.73-14.95-11.14-.79-22.29-1.95-33.44-3.45-8.81-1.19-16.27-7.49-18.98-16.31-7.9-25.79-7.9-51.589 0-77.379 2.71-8.82 10.17-15.12 18.98-16.31 11.15-1.5 22.3-2.66 33.44-3.45 8.78-.64 16.37-6.47 19.73-14.95.03-.1.07-.19.11-.29 3.37-8.47 1.98-18.18-3.81-25.1-7.33-8.77-14.44-17.8-21.3-27.08-5.43-7.33-6.42-17.29-2.35-25.52 9.93-20.06 23.75-36.08 41.45-48.039-5.41-1.5-11.29-1-16.46 1.66-23.09 11.91-40.58 29.4-52.489 52.489-4.07 7.9-3.08 17.46 2.35 24.49 6.86 8.91 13.97 17.57 21.29 25.99 5.79 6.64 7.18 15.96 3.81 24.09-.04.09-.08.18-.11.27-3.36 8.14-10.94 13.74-19.72 14.35-11.14.76-22.29 1.87-33.44 3.31-8.81 1.14-16.27 7.19-18.98 15.65-7.9 24.75-7.9 49.51 0 74.259 2.71 8.46 10.17 14.51 18.98 15.65 11.15 1.44 22.3 2.55 33.44 3.31 8.78.61 16.36 6.21 19.72 14.35.03.09.07.18.11.27 3.37 8.13 1.98 17.45-3.81 24.09-7.32 8.42-14.43 17.08-21.29 25.99-5.43 7.03-6.42 16.59-2.35 24.49 11.91 23.09 29.4 40.58 52.489 52.489 5.17 2.66 11.05 3.16 16.46 1.66-17.7-11.959-31.52-27.979-41.45-48.039zm144.989 81.619c-1.44-11.62-2.55-23.24-3.31-34.85-.61-9.15-6.21-17.06-14.35-20.56-.09-.03-.18-.07-.27-.11-5.82-2.52-12.25-2.49-17.87-.06 2.87 3.57 4.66 7.97 4.99 12.72.76 11.14 1.87 22.29 3.31 33.44 1.14 8.81 7.19 16.27 15.65 18.98 6.14 1.96 12.29 3.44 18.43 4.43-3.55-3.7-5.91-8.6-6.58-13.99zm-11.85-475.575c-8.46 2.71-14.51 10.17-15.65 18.98-1.44 11.15-2.55 22.3-3.31 33.44-.33 4.75-2.12 9.15-4.99 12.72 5.62 2.43 12.05 2.46 17.87-.06.09-.04.18-.08.27-.11 8.14-3.5 13.74-11.41 14.35-20.56.76-11.61 1.87-23.23 3.31-34.85.67-5.39 3.03-10.29 6.58-13.99-6.14.99-12.29 2.47-18.43 4.43z" fill="#a0aab7"/><path d="m255.979 100.205c-86.027 0-155.774 69.747-155.774 155.774s69.747 155.774 155.774 155.774 155.774-69.747 155.774-155.774-69.747-155.774-155.774-155.774zm0 236.381c-44.518 0-80.607-36.089-80.607-80.607s36.089-80.607 80.607-80.607 80.607 36.089 80.607 80.607-36.089 80.607-80.607 80.607z" fill="#eeebef"/><path d="m283.479 171.975c-8.03 0-15.78 1.22-23.09 3.51 42.47 2.29 76.199 37.45 76.199 80.489 0 43.04-33.73 78.199-76.199 80.489 7.31 2.29 15.06 3.51 23.09 3.51 44.52 0 80.609-37.61 80.609-83.999s-36.089-83.999-80.609-83.999z" fill="#e2dfe2"/></g><g><path d="m255.979 419.248c-29.828 0-59.014-8.12-84.402-23.483-3.544-2.145-4.678-6.756-2.534-10.3s6.755-4.679 10.299-2.534c23.046 13.946 49.546 21.317 76.636 21.317 81.755 0 148.269-66.513 148.269-148.269s-66.513-148.269-148.269-148.269-148.269 66.513-148.269 148.269c0 41.854 17.819 81.96 48.888 110.034 3.073 2.777 3.313 7.52.537 10.593-2.778 3.073-7.521 3.313-10.593.536-34.21-30.913-53.831-75.076-53.831-121.164 0-90.027 73.242-163.269 163.269-163.269s163.269 73.242 163.269 163.269-73.243 163.27-163.269 163.27z"/><path d="m255.979 344.089c-48.584 0-88.11-39.526-88.11-88.11s39.526-88.11 88.11-88.11 88.11 39.526 88.11 88.11-39.526 88.11-88.11 88.11zm0-161.22c-40.313 0-73.11 32.797-73.11 73.11s32.797 73.11 73.11 73.11 73.11-32.797 73.11-73.11-32.797-73.11-73.11-73.11z"/><path d="m255.981 511.958c-13.166 0-26.33-2.089-39.404-6.267-11.125-3.547-19.298-13.424-20.814-25.163-1.445-11.177-2.573-22.577-3.354-33.884-.41-5.897-4.138-10.996-9.73-13.304-.021-.009-.042-.017-.062-.026-.104-.042-.205-.084-.303-.127-5.576-2.271-11.771-1.292-16.194 2.564-8.494 7.396-17.354 14.66-26.335 21.594-9.383 7.223-22.143 8.424-32.514 3.067-24.391-12.581-43.14-31.33-55.724-55.725-5.355-10.37-4.154-23.13 3.063-32.503 6.937-8.986 14.201-17.845 21.597-26.34 3.859-4.427 4.837-10.622 2.567-16.196-.045-.102-.088-.207-.131-.313-.008-.018-.016-.036-.023-.054-2.308-5.591-7.407-9.319-13.307-9.729-11.306-.781-22.707-1.909-33.881-3.354-11.739-1.518-21.616-9.69-25.164-20.821-8.354-26.14-8.354-52.654.002-78.8 3.546-11.125 13.423-19.297 25.162-20.815 11.175-1.444 22.575-2.573 33.885-3.354 5.897-.41 10.996-4.138 13.304-9.729.007-.018.015-.036.022-.054.043-.107.086-.21.131-.311 2.271-5.575 1.292-11.771-2.564-16.195-7.399-8.498-14.663-17.357-21.594-26.335-7.223-9.381-8.424-22.141-3.066-32.514 12.582-24.391 31.331-43.141 55.725-55.723 10.369-5.356 23.128-4.154 32.503 3.063 8.99 6.939 17.849 14.203 26.34 21.596 4.427 3.859 10.622 4.837 16.195 2.568.101-.044.205-.088.31-.13.019-.008.039-.016.058-.024 5.592-2.308 9.32-7.407 9.73-13.307.781-11.303 1.909-22.704 3.354-33.881 1.517-11.738 9.689-21.616 20.82-25.164 26.141-8.354 52.654-8.355 78.8.002 11.125 3.547 19.298 13.424 20.814 25.163 1.445 11.177 2.573 22.577 3.354 33.884.41 5.897 4.138 10.996 9.73 13.304.021.009.042.017.062.026.104.042.205.084.303.127 5.577 2.271 11.772 1.292 16.194-2.564 8.494-7.396 17.354-14.66 26.335-21.594 7.741-5.963 17.889-7.906 27.146-5.202 3.976 1.161 6.258 5.326 5.097 9.302s-5.328 6.258-9.302 5.096c-4.677-1.366-9.828-.364-13.78 2.682-8.744 6.75-17.373 13.825-25.642 21.025-8.77 7.645-20.99 9.589-31.887 5.072-.049-.021-.099-.042-.148-.063-.052-.021-.104-.042-.154-.064-10.865-4.507-18.111-14.507-18.917-26.111-.761-11.013-1.859-22.115-3.266-32.998-.773-5.987-4.895-11.009-10.5-12.796-23.12-7.389-46.561-7.389-69.678-.002-5.61 1.788-9.731 6.811-10.505 12.797-1.407 10.884-2.505 21.985-3.266 32.995-.807 11.606-8.053 21.606-18.917 26.114-.052.022-.104.044-.156.065-.049.021-.098.042-.147.063-10.898 4.518-23.118 2.573-31.89-5.075-8.266-7.197-16.895-14.272-25.645-21.026-4.774-3.676-11.241-4.311-16.465-1.613-21.575 11.125-38.152 27.702-49.278 49.272-2.7 5.228-2.065 11.694 1.617 16.476 6.745 8.738 13.82 17.367 21.023 25.64 7.645 8.769 9.589 20.989 5.072 31.887-.021.049-.042.099-.063.148-.021.052-.042.104-.064.155-4.507 10.864-14.507 18.111-26.11 18.917-11.017.761-22.118 1.86-32.999 3.266-5.986.774-11.009 4.895-12.795 10.499-7.39 23.121-7.39 46.563-.002 69.678 1.788 5.61 6.811 9.731 12.797 10.505 10.881 1.406 21.982 2.505 32.995 3.266 11.607.807 21.606 8.052 26.113 18.916.022.053.044.105.065.157.021.049.042.097.063.146 4.518 10.898 2.573 23.118-5.075 31.89-7.2 8.27-14.275 16.898-21.026 25.644-3.676 4.775-4.312 11.241-1.613 16.465 11.128 21.573 27.706 38.15 49.274 49.276 5.228 2.7 11.693 2.064 16.477-1.617 8.742-6.748 17.371-13.823 25.64-21.023 8.77-7.645 20.988-9.59 31.887-5.072.049.021.099.042.148.063.052.021.104.042.154.064 10.865 4.507 18.111 14.507 18.917 26.111.761 11.013 1.859 22.115 3.266 32.998.773 5.987 4.895 11.009 10.5 12.796 23.121 7.39 46.562 7.39 69.678.002 5.61-1.788 9.731-6.811 10.505-12.797 1.407-10.884 2.505-21.985 3.266-32.995.807-11.606 8.053-21.606 18.917-26.114.052-.022.104-.044.156-.065.049-.021.098-.042.147-.063 10.898-4.518 23.118-2.573 31.89 5.075 8.266 7.197 16.895 14.272 25.645 21.026 4.775 3.677 11.242 4.312 16.465 1.613 21.572-11.127 38.149-27.705 49.275-49.274 2.7-5.228 2.065-11.694-1.617-16.476-6.745-8.738-13.82-17.367-21.023-25.64-7.645-8.769-9.589-20.989-5.072-31.887.021-.049.042-.099.063-.148.021-.052.042-.104.064-.155 4.507-10.864 14.507-18.111 26.11-18.917 11.017-.761 22.118-1.86 32.999-3.266 5.986-.774 11.009-4.895 12.795-10.499 7.39-23.121 7.39-46.563.002-69.678-1.788-5.61-6.811-9.731-12.797-10.505-10.881-1.406-21.982-2.505-32.995-3.266-11.607-.807-21.606-8.052-26.113-18.916-.022-.053-.044-.105-.065-.157-.021-.049-.042-.097-.063-.146-4.518-10.898-2.573-23.118 5.075-31.89 7.2-8.27 14.275-16.898 21.026-25.644 3.676-4.775 4.312-11.241 1.613-16.465-7.545-14.623-17.61-27.005-29.918-36.804-3.24-2.58-3.775-7.299-1.195-10.539 2.58-3.241 7.299-3.776 10.539-1.196 13.975 11.127 25.381 25.143 33.903 41.658 5.356 10.371 4.155 23.13-3.062 32.504-6.937 8.986-14.201 17.845-21.597 26.34-3.859 4.427-4.837 10.622-2.567 16.196.045.102.088.207.131.313.008.018.016.036.023.054 2.308 5.591 7.407 9.319 13.307 9.729 11.306.781 22.707 1.909 33.881 3.354 11.739 1.518 21.616 9.69 25.164 20.821 8.354 26.14 8.354 52.654-.002 78.8-3.546 11.125-13.423 19.297-25.162 20.815-11.175 1.444-22.575 2.573-33.885 3.354-5.897.41-10.996 4.138-13.304 9.729-.007.018-.015.036-.022.054-.043.107-.086.21-.131.311-2.271 5.575-1.292 11.771 2.564 16.195 7.399 8.498 14.663 17.357 21.594 26.335 7.223 9.381 8.424 22.141 3.066 32.514-12.582 24.391-31.331 43.141-55.725 55.723-10.37 5.355-23.128 4.154-32.503-3.063-8.99-6.939-17.849-14.203-26.34-21.596-4.426-3.859-10.621-4.836-16.195-2.568-.101.044-.205.088-.31.13-.019.008-.039.016-.058.024-5.592 2.308-9.32 7.407-9.73 13.307-.781 11.303-1.909 22.704-3.354 33.881-1.517 11.738-9.689 21.616-20.82 25.164-13.068 4.177-26.233 6.266-39.395 6.266zm67.389-92.391c-.015.008-.03.015-.045.023.014-.008.03-.016.045-.023zm-134.782 0c.015.008.03.015.045.023-.014-.008-.029-.016-.045-.023zm231.005-230.925h.01zm-231.005-96.25c.015-.008.03-.015.045-.023-.014.008-.029.015-.045.023zm134.736-.023c.015.008.03.015.045.023-.014-.008-.03-.015-.045-.023z"/></g></g></svg>