<svg id="Layer_1" height="512" viewBox="0 0 32 32" width="512" xmlns="http://www.w3.org/2000/svg" data-name="Layer 1"><path d="m28 1h-24a3.0033 3.0033 0 0 0 -3 3v16a3.0033 3.0033 0 0 0 3 3h1v7a1 1 0 0 0 1.6245.7808l9.7261-7.7808h11.6494a3.0033 3.0033 0 0 0 3-3v-16a3.0033 3.0033 0 0 0 -3-3zm1 19a1.0013 1.0013 0 0 1 -1 1h-12a.9978.9978 0 0 0 -.6245.2192l-8.3755 6.7002v-5.9194a1 1 0 0 0 -1-1h-2a1.0013 1.0013 0 0 1 -1-1v-16a1.0013 1.0013 0 0 1 1-1h24a1.0013 1.0013 0 0 1 1 1z"/><path d="m23 6h-14a1 1 0 0 0 0 2h14a1 1 0 0 0 0-2z"/><path d="m23 11h-14a1 1 0 0 0 0 2h14a1 1 0 0 0 0-2z"/><path d="m23 16h-14a1 1 0 0 0 0 2h14a1 1 0 0 0 0-2z"/></svg>