<svg id="Capa_1" enable-background="new 0 0 511.971 511.971" height="512" viewBox="0 0 511.971 511.971" width="512" xmlns="http://www.w3.org/2000/svg"><path d="m89.877 142.209c9.865-16.994 22.883-32.012 38.622-43.777 24.926-18.632 55.799-29.692 89.129-29.692h76.705c82.18 0 149.418 67.238 149.418 149.418v76.705c0 82.18-67.238 149.418-149.418 149.418h-76.705c-82.18 0-149.418-67.238-149.418-149.418v-76.705c0-1.101.012-2.2.036-3.296.54-24.634 7.708-48.669 20.078-69.978z" fill="#fff2cf"/><path d="m252.933 68.741h-35.305c-33.331 0-64.203 11.06-89.129 29.692-15.739 11.764-28.757 26.783-38.622 43.777l-1.553 2.676c-12.37 21.309-19.538 45.344-20.078 69.978-.024 1.096-.036 2.195-.036 3.296v76.705c0 75.343 56.518 138.116 129.25 148.042-54.455-95.91-36.888-317.552 55.473-374.166z" fill="#ffe1bd"/><g fill="#db9e82"><path d="m14.23 142.034c4.933-24.386 12.188-43.965 20.467-51.704 13.851-12.946 26.333 1.343 40.797-1.911 14.98-3.37 24.229-19.336 40.225-20.656 10.719-.884 21.031 5.869 26.834 14.925 29.162 45.514-29.05 230.864-96.768 223.414-35.27-3.881-42.655-73.817-36.198-133.689 0 0 1.77-17.753 4.643-30.379z"/><path d="m477.264 90.33c29.829 27.879 46.361 209.451-11.088 215.772-67.718 7.451-125.93-177.899-96.768-223.414 5.803-9.056 16.115-15.809 26.834-14.925 15.996 1.319 25.245 17.286 40.225 20.656 14.465 3.254 26.946-11.035 40.797 1.911z"/><circle cx="255.981" cy="299.673" r="25.473"/></g><path d="m75.495 88.419c-14.465 3.254-26.946-11.035-40.797 1.911-8.279 7.738-15.535 27.318-20.467 51.704-2.873 12.625-4.643 30.379-4.643 30.379-6.457 59.872.928 129.808 36.198 133.689-8.992-65.983-.035-178.443 29.709-217.683z" fill="#c8866a"/><path d="m272.491 305.564c-13.174 0-22.93-10.768-23.5-23.5-.111-2.477.252-4.894.994-7.161-11.174 2.697-19.477 12.768-19.477 24.77 0 14.068 11.405 25.473 25.473 25.473 12.662 0 23.164-9.238 25.138-21.342-2.735 1.13-5.667 1.76-8.628 1.76z" fill="#c8866a"/><path d="m177.954 274.214-27.564-14.052c-3.69-1.881-8.208-.415-10.088 3.275-1.881 3.69-.415 8.207 3.275 10.088l14.09 7.183-16.644 8.025c-3.731 1.799-5.297 6.282-3.499 10.013 1.293 2.681 3.971 4.245 6.761 4.245 1.092 0 2.202-.24 3.252-.746l30.267-14.593c2.567-1.238 4.21-3.823 4.242-6.673.033-2.849-1.553-5.471-4.092-6.765z"/><path d="m370.938 288.734-16.644-8.025 14.09-7.183c3.69-1.881 5.157-6.398 3.275-10.088-1.881-3.691-6.399-5.158-10.088-3.275l-27.564 14.052c-2.539 1.294-4.125 3.916-4.093 6.765.032 2.85 1.675 5.435 4.242 6.673l30.267 14.593c1.05.506 2.159.746 3.252.746 2.79 0 5.468-1.563 6.761-4.245 1.8-3.731.233-8.215-3.498-10.013z"/><path d="m509.476 168.443c-1.787-15.34-9.023-66.705-27.09-83.592-11.417-10.67-22.979-7.553-31.422-5.276-11.772 3.176-18.544.073-28.324-7.209-7.044-5.245-15.028-11.189-25.78-12.076-12.301-1.016-25.108 5.729-33.002 17.24-21.379-10.651-45.038-16.289-69.523-16.289h-76.705c-24.423 0-48.028 5.58-69.512 16.305-7.892-11.52-20.693-18.271-33.013-17.256-10.752.887-18.736 6.832-25.78 12.076-9.609 7.155-16.507 10.397-28.324 7.209-8.443-2.276-20.005-5.394-31.422 5.276-11.651 10.89-18.773 36.298-22.697 55.696-.821 4.06 1.804 8.017 5.864 8.838.119.024.237.035.355.053 3.931.602 7.686-1.977 8.483-5.917 7.097-35.088 15.753-45.39 18.237-47.711 5.107-4.773 8.987-3.987 17.275-1.752 16.262 4.385 28.079.099 41.187-9.661 6.215-4.628 11.583-8.625 18.055-9.158 7.116-.592 15.12 4.032 19.902 11.497 17.164 26.787-.979 115.823-34.665 170.122-10.375 16.725-31.321 44.384-54.968 41.79-15.812-1.74-23.537-22.692-27.233-39.962-4.879-22.796-5.728-53.947-2.329-85.467.432-4.007-2.379-7.608-6.325-8.209-.109-.017-.216-.04-.327-.052-4.112-.444-7.817 2.534-8.261 6.652-3.563 33.041-2.625 65.923 2.574 90.215 4.73 22.1 15.555 49.014 40.26 51.733 5.522.607 11.352.105 16.71-1.326 8.646 78.257 77.283 139.55 155.953 139.55h76.705c78.67 0 147.307-61.294 155.953-139.549 5.357 1.43 11.189 1.932 16.71 1.325 20.567-2.263 31.146-21.567 36.398-37.363 8.641-25.986 10.914-66.268 6.081-107.752zm-20.315 103.019c-5.626 16.92-13.636 26.067-23.805 27.186-23.647 2.605-44.592-25.065-54.968-41.79-33.686-54.299-51.829-143.335-34.665-170.123 4.509-7.038 11.876-11.547 18.674-11.547.412 0 .822.017 1.229.05 6.473.534 11.84 4.53 18.055 9.158 13.216 9.84 24.943 14.04 41.187 9.661 8.288-2.236 12.167-3.021 17.275 1.752 7.691 7.188 17.61 32.972 22.434 74.369 4.591 39.413 2.567 77.277-5.416 101.284zm-194.828 165.32h-76.705c-72.848 0-135.825-58.123-141.482-130.802 13.223-7.919 26.102-21.759 38.173-41.216 17.26-27.822 31.332-64.739 38.607-101.285 3.696-18.565 8.028-49.793 1.45-72.286 19.536-9.833 41.019-14.954 63.252-14.954h76.705c22.286 0 43.821 5.166 63.258 14.93-6.588 22.495-2.254 53.738 1.443 72.309 7.275 36.546 21.347 73.462 38.607 101.285 12.072 19.458 24.95 33.299 38.173 41.217-5.656 72.68-68.633 130.802-141.481 130.802z"/><path d="m310.038 325.64c-4.034.939-6.543 4.971-5.604 9.005 2.383 10.232-5.744 20.442-16.224 20.442-12.525 0-20.768-12.855-23.214-23.704 13.812-3.932 23.959-16.654 23.959-31.71 0-18.182-14.792-32.973-32.973-32.973s-32.973 14.792-32.973 32.973c0 15.056 10.147 27.778 23.959 31.71-2.449 10.865-10.745 23.756-23.298 23.704-10.394-.054-18.507-10.279-16.14-20.441.939-4.034-1.57-8.066-5.604-9.005-4.036-.938-8.066 1.57-9.005 5.604-4.538 19.491 10.839 38.843 30.838 38.843 14.343-.001 25.8-9.705 32.224-20.708 6.424 11.004 17.88 20.708 32.224 20.708 20.021 0 35.379-19.341 30.838-38.843-.942-4.035-4.972-6.543-9.007-5.605zm-72.03-25.967c0-9.911 8.063-17.973 17.973-17.973 9.911 0 17.973 8.063 17.973 17.973s-8.063 17.973-17.973 17.973c-9.911 0-17.973-8.062-17.973-17.973z"/></svg>