<?xml version="1.0" encoding="iso-8859-1"?>
<!-- Generator: Adobe Illustrator 19.0.0, SVG Export Plug-In . SVG Version: 6.00 Build 0)  -->
<svg xmlns="http://www.w3.org/2000/svg" xmlns:xlink="http://www.w3.org/1999/xlink" version="1.1" id="Layer_1" x="0px" y="0px" viewBox="0 0 512 512" style="enable-background:new 0 0 512 512;" xml:space="preserve">
<g>
	<circle style="fill:#1C9AD6;" cx="409.921" cy="110.63" r="76.96"/>
	<circle style="fill:#1C9AD6;" cx="232.527" cy="87.158" r="66.231"/>
	<circle style="fill:#1C9AD6;" cx="78.606" cy="61.504" r="53.487"/>
	<path style="fill:#1C9AD6;" d="M144.835,315.858H8.017V204.693c0-37.781,30.628-68.409,68.409-68.409l0,0   c37.781,0,68.409,30.628,68.409,68.409V315.858z"/>
</g>
<g>
	<path style="fill:#1C74BB;" d="M50.772,61.502c0-25.116,17.316-46.178,40.659-51.926c-4.111-1.012-8.404-1.56-12.827-1.56   c-29.539,0-53.485,23.946-53.485,53.485s23.946,53.485,53.485,53.485c4.423,0,8.716-0.547,12.827-1.56   C68.089,107.68,50.772,86.618,50.772,61.502z"/>
	<path style="fill:#1C74BB;" d="M89.253,137.502c-4.157-0.789-8.44-1.219-12.827-1.219l0,0c-37.781,0-68.409,30.628-68.409,68.409   v111.165H33.67V204.693C33.67,171.298,57.606,143.509,89.253,137.502z"/>
</g>
<path style="fill:#1C9AD6;" d="M315.432,256c-4.291-43.211-40.744-76.96-85.085-76.96s-80.793,33.749-85.085,76.96h-0.426v153.921  h171.023V256H315.432z"/>
<g>
	<path style="fill:#1C74BB;" d="M191.948,87.155c0-32.189,22.966-59.003,53.404-64.978c-4.152-0.814-8.437-1.253-12.827-1.253   c-36.579,0-66.231,29.652-66.231,66.231s29.652,66.231,66.231,66.231c4.39,0,8.675-0.438,12.827-1.253   C214.914,146.158,191.948,119.344,191.948,87.155z"/>
	<path style="fill:#1C74BB;" d="M170.915,256c3.868-38.961,33.889-70.219,72.258-75.993c-4.186-0.63-8.466-0.967-12.827-0.967   c-44.34,0-80.793,33.749-85.085,76.96h-0.426v153.921h25.653V256H170.915z"/>
</g>
<path style="fill:#1C9AD6;" d="M409.921,213.244c-51.949,0-94.063,42.113-94.063,94.063v196.676h188.125V307.307  C503.983,255.358,461.87,213.244,409.921,213.244z"/>
<g>
	<path style="fill:#1C74BB;" d="M358.614,110.63c0-38.132,27.738-69.767,64.134-75.876c-4.173-0.7-8.454-1.084-12.827-1.084   c-42.505,0-76.96,34.456-76.96,76.96c0,42.503,34.456,76.96,76.96,76.96c4.373,0,8.654-0.384,12.827-1.084   C386.352,180.397,358.614,148.762,358.614,110.63z"/>
	<path style="fill:#1C74BB;" d="M422.747,214.119c-4.194-0.572-8.475-0.874-12.827-0.874c-51.949,0-94.063,42.113-94.063,94.063   v196.676h25.653V307.307C341.511,259.709,376.867,220.375,422.747,214.119z"/>
</g>
<path d="M409.921,195.608c46.857,0,84.977-38.12,84.977-84.977c0-16.9-4.95-33.227-14.316-47.216  c-2.431-3.629-7.492-4.632-11.122-2.202c-3.63,2.43-4.63,7.492-2.202,11.122c7.593,11.341,11.606,24.583,11.606,38.296  c0,38.015-30.928,68.944-68.944,68.944s-68.944-30.928-68.944-68.944s30.928-68.944,68.944-68.944  c13.71,0,26.952,4.013,38.293,11.603c3.68,2.463,8.659,1.476,11.121-2.203c2.464-3.679,1.477-8.659-2.203-11.121  c-13.989-9.364-30.314-14.312-47.211-14.312c-46.857,0-84.977,38.12-84.977,84.977S363.064,195.608,409.921,195.608z"/>
<path d="M232.525,161.403c40.941,0,74.247-33.307,74.247-74.247s-33.307-74.247-74.247-74.247s-74.247,33.307-74.247,74.247  S191.584,161.403,232.525,161.403z M232.525,28.941c32.099,0,58.214,26.115,58.214,58.214s-26.115,58.214-58.214,58.214  s-58.214-26.115-58.214-58.214S200.426,28.941,232.525,28.941z"/>
<path d="M78.604,123.004c33.913,0,61.502-27.59,61.502-61.502S112.517,0,78.604,0S17.102,27.59,17.102,61.502  S44.693,123.004,78.604,123.004z M78.604,16.033c25.072,0,45.469,20.397,45.469,45.469s-20.397,45.469-45.469,45.469  S33.136,86.574,33.136,61.502S53.532,16.033,78.604,16.033z"/>
<path d="M409.921,205.228c-36.442,0-68.478,19.198-86.543,48.008c-0.082-0.222-0.168-0.445-0.268-0.657  c-2.81-21.958-13.329-42.182-29.804-57.189c-17.249-15.713-39.608-24.366-62.959-24.366s-45.71,8.654-62.959,24.367  c-5.55,5.055-10.405,10.712-14.536,16.819v-7.515c0-42.141-34.285-76.426-76.426-76.426S0,162.552,0,204.693v42.756  c0,4.428,3.588,8.017,8.017,8.017s8.017-3.588,8.017-8.017v-42.756c0-33.3,27.092-60.392,60.392-60.392s60.392,27.092,60.392,60.392  v103.148H16.033v-26.188c0-4.428-3.588-8.017-8.017-8.017S0,277.225,0,281.653v34.205c0,4.428,3.588,8.017,8.017,8.017h128.802  v86.046c0,4.428,3.588,8.017,8.017,8.017h163.006v86.046c0,4.428,3.588,8.017,8.017,8.017h188.125c4.428,0,8.017-3.588,8.017-8.017  V307.307C512,251.02,466.208,205.228,409.921,205.228z M152.852,401.904V258.586c0.195-0.571,0.326-1.17,0.387-1.794  c3.95-39.755,37.097-69.736,77.108-69.736s73.158,29.98,77.108,69.736c0.062,0.623,0.193,1.223,0.387,1.794v143.318H152.852z   M495.967,495.967H323.875v-188.66c0-47.446,38.6-86.046,86.046-86.046s86.046,38.6,86.046,86.046V495.967z"/>
<g>
</g>
<g>
</g>
<g>
</g>
<g>
</g>
<g>
</g>
<g>
</g>
<g>
</g>
<g>
</g>
<g>
</g>
<g>
</g>
<g>
</g>
<g>
</g>
<g>
</g>
<g>
</g>
<g>
</g>
</svg>
