<svg id="Capa_1" enable-background="new 0 0 511.966 511.966" height="512" viewBox="0 0 511.966 511.966" width="512" xmlns="http://www.w3.org/2000/svg"><g><g><path d="m341.967 489.233h-63.138c-8.284 0-15-6.716-15-15s6.716-15 15-15h59.763c29.955-15.016 47.88-49.505 48.062-49.862 3.771-7.363 12.8-10.297 20.167-6.543 7.371 3.754 10.318 12.753 6.579 20.131-.954 1.884-23.852 46.347-65.288 64.957-1.932.869-4.027 1.317-6.145 1.317z" fill="#dd636e"/><path d="m415.011 416.451c-.64-.48-1.33-.91-2.06-1.28-7.37-3.75-16.4-.82-20.17 6.55-.18.35-18.11 34.84-48.06 49.86h-59.77c-8.2 0-14.86 6.58-14.99 14.75-3.72-2.73-6.13-7.13-6.13-12.1 0-8.28 6.71-15 15-15h59.76c29.96-15.01 47.88-49.5 48.06-49.86 3.77-7.36 12.8-10.3 20.17-6.54 5.28 2.69 8.29 8.07 8.19 13.62z" fill="#da4a54"/><path d="m433.761 399.19c-2.148 0-4.33-.464-6.401-1.443-7.489-3.541-10.69-12.483-7.149-19.972.355-.764 12.724-27.528 23.349-71.913 9.695-40.497 19.855-104.274 13.821-179.654-10.078-13.392-36.68-39.735-78.864-60.212-37.913-18.404-80.285-28.132-122.534-28.132s-84.62 9.728-122.533 28.132c-42.147 20.459-68.74 46.774-78.866 60.219-6.034 75.38 4.126 139.151 13.822 179.648 10.728 44.811 23.231 71.661 23.356 71.927 3.521 7.491.313 16.427-7.175 19.957-7.487 3.529-16.416.335-19.954-7.149-.555-1.172-13.707-29.258-25.171-76.782-10.513-43.578-21.549-112.65-14.428-194.238.215-2.464 1.036-4.836 2.389-6.905 1.117-1.708 28.104-42.199 92.924-73.665 41.972-20.375 88.873-31.144 135.634-31.144 46.762 0 93.663 10.769 135.635 31.144 64.819 31.466 91.805 71.957 92.923 73.665 1.354 2.07 2.175 4.442 2.39 6.905 7.121 81.588-3.916 150.66-14.428 194.238-11.465 47.524-24.616 75.609-25.171 76.782-2.561 5.418-7.949 8.592-13.569 8.592z" fill="#dd636e"/><g fill="#da4a54"><path d="m81.249 390.598c-.555-1.172-13.706-29.258-25.171-76.782-10.513-43.578-21.549-112.65-14.428-194.238.215-2.464 1.036-4.836 2.389-6.905 1.117-1.708 28.104-42.199 92.924-73.665 39.486-19.168 83.336-29.832 127.326-31.028-2.769-.075-5.539-.116-8.308-.116-46.761 0-93.663 10.769-135.634 31.144-64.82 31.466-91.807 71.957-92.924 73.665-1.353 2.07-2.174 4.442-2.389 6.905-7.121 81.588 3.916 150.66 14.428 194.238 11.464 47.524 24.616 75.609 25.171 76.782 3.538 7.484 12.466 10.678 19.954 7.149.675-.318 1.303-.695 1.907-1.096-2.193-1.458-4.038-3.498-5.245-6.053z"/><path d="m436.825 377.775c.355-.764 12.724-27.528 23.349-71.913 9.695-40.497 19.855-104.274 13.821-179.654-10.078-13.392-36.68-39.735-78.864-60.212-37.913-18.404-80.285-28.132-122.534-28.132-2.769 0-5.539.044-8.308.128 39.476 1.187 78.798 10.807 114.226 28.005 42.184 20.478 68.786 46.821 78.864 60.212 6.034 75.38-4.126 139.157-13.821 179.654-10.625 44.384-22.993 71.148-23.349 71.913-3.541 7.489-.34 16.431 7.149 19.972 2.071.979 4.253 1.443 6.401 1.443 2.969 0 5.869-.894 8.326-2.529-6.104-4.053-8.485-12.066-5.26-18.887z"/></g><g><path d="m106.909 430.575c-3.047 2.211-6.155 4.27-9.323 6.178-23.635 14.237-54.33 4.17-65.072-21.245-7.733-18.296-15.097-36.738-22.093-55.328-9.718-25.824 5.6-54.264 32.541-60.223 3.611-.799 7.282-1.446 11.014-1.943 19.76 43.343 37.404 87.53 52.933 132.561z" fill="#80b4fb"/><path d="m93.933 394.462c4.479 11.973 8.804 24.018 12.977 36.113-3.049 2.208-6.157 4.267-9.324 6.178-23.634 14.24-54.326 4.173-65.068-21.245-3.707-8.771-7.326-17.565-10.866-26.403 14.711 18.612 41.572 24.371 63.022 11.456 3.144-1.891 6.227-3.93 9.259-6.099z" fill="#61a2f9"/><path d="m64.968 273.886c-13.493 5.388-20.064 20.694-14.676 34.187l47.018 117.748c5.388 13.493 20.694 20.063 34.187 14.676 13.493-5.388 20.064-20.694 14.676-34.187l-47.018-117.748c-5.388-13.493-20.694-20.064-34.187-14.676z" fill="#524798"/><path d="m124.693 352.502 21.486 53.809c2.696 6.752 2.393 13.947-.263 20.133-2.655 6.186-7.676 11.356-14.418 14.049-13.494 5.388-28.799-1.174-34.187-14.668l-21.486-53.809c5.388 13.494 20.693 20.056 34.187 14.668 6.742-2.692 11.763-7.863 14.418-14.048 2.656-6.187 2.959-13.383.263-20.134z" fill="#453d81"/></g><g><path d="m405.055 430.575c3.047 2.211 6.155 4.27 9.323 6.178 23.635 14.237 54.33 4.17 65.072-21.245 7.733-18.296 15.097-36.738 22.093-55.328 9.718-25.824-5.6-54.264-32.541-60.223-3.611-.799-7.282-1.446-11.014-1.943-19.76 43.343-37.404 87.53-52.933 132.561z" fill="#80b4fb"/><path d="m418.031 394.462c-4.479 11.973-8.804 24.018-12.977 36.113 3.049 2.208 6.157 4.267 9.324 6.178 23.634 14.24 54.326 4.173 65.068-21.245 3.707-8.771 7.326-17.565 10.866-26.403-14.711 18.612-41.572 24.371-63.022 11.456-3.144-1.891-6.227-3.93-9.259-6.099z" fill="#61a2f9"/><path d="m446.995 273.886c13.493 5.388 20.064 20.694 14.676 34.187l-47.017 117.748c-5.388 13.493-20.694 20.063-34.187 14.676-13.493-5.388-20.064-20.694-14.676-34.187l47.017-117.748c5.388-13.493 20.694-20.064 34.187-14.676z" fill="#524798"/><path d="m387.27 352.502-21.486 53.809c-2.696 6.752-2.393 13.947.263 20.133 2.655 6.186 7.676 11.356 14.418 14.049 13.494 5.388 28.799-1.174 34.187-14.668l21.486-53.809c-5.388 13.494-20.693 20.056-34.187 14.668-6.742-2.692-11.763-7.863-14.418-14.048-2.655-6.187-2.958-13.383-.263-20.134z" fill="#453d81"/></g><path d="m283.4 442.376h-26.89c-16.436 0-29.761 13.324-29.761 29.761v2.203c0 16.436 13.324 29.761 29.761 29.761h26.89c16.436 0 29.761-13.324 29.761-29.761v-2.203c0-16.437-13.324-29.761-29.761-29.761z" fill="#524798"/><path d="m309.502 488.651c-5.07 9.21-14.86 15.45-26.1 15.45h-26.89c-16.44 0-29.76-13.33-29.76-29.77v-2.2c0-16.44 13.32-29.76 29.76-29.76h.16c-2.33 4.25-3.66 9.13-3.66 14.32v2.2c0 16.44 13.33 29.76 29.76 29.76z" fill="#453d81"/><g fill="#f6e266"><path d="m363.78 313.294c-.044 0-.088 0-.132 0-8.284-.071-14.941-6.845-14.87-15.129.106-12.353.216-26.244.318-40.655h-79.419c-5.307 0-10.219-2.804-12.917-7.374s-2.78-10.225-.217-14.872c10.602-19.219 64.034-115.754 74.718-128.861 11.835-14.52 24.415-12.587 29.276-11.082 10.294 3.188 17.62 13.324 18.661 25.821.566 6.795.382 59.81.099 106.368h9.069c8.284 0 15 6.716 15 15s-6.716 15-15 15h-9.269c-.146 20.274-.279 36.048-.321 40.913-.07 8.24-6.773 14.87-14.996 14.871zm-68.633-85.784h54.146c.236-39.297.372-77.373.213-94.685-10.951 17.517-34.792 59.566-54.359 94.685z"/><path d="m183.478 313.294c-35.881 0-38.452-.859-40.492-1.54-5.071-1.69-8.857-5.509-10.385-10.477-2.419-7.864 1.867-14.105 3.927-17.104 1.813-2.641 4.525-6.191 8.629-11.565 9.626-12.604 27.544-36.066 57.559-78.951 9.185-13.123 15.105-24.937 17.606-35.128l.7-5.481c-.461-17.998-15.245-32.496-33.352-32.496-15.91 0-29.677 11.305-32.737 26.88-1.597 8.129-9.482 13.423-17.61 11.828-8.129-1.597-13.424-9.481-11.828-17.61 5.816-29.608 31.964-51.097 62.174-51.097 34.938 0 63.363 28.425 63.363 63.363 0 .636-.041 1.271-.121 1.901l-.934 7.311c-.063.5-.153.996-.267 1.487-3.27 14.105-10.813 29.664-22.418 46.245-25.173 35.967-41.96 58.463-52.526 72.385 18.526.054 44.67-.116 69.088-.423.064 0 .128-.001.192-.001 8.196 0 14.892 6.592 14.995 14.811.104 8.284-6.527 15.083-14.81 15.187-26.901.339-46.47.475-60.753.475z"/></g></g><g><path d="m505.579 318.983c-5.016-9.257-12.62-16.693-21.742-21.505 8.678-41.873 16.972-105.162 10.564-178.573-.329-3.671-1.566-7.242-3.586-10.341-.794-1.212-8.203-12.266-23.675-26.997-20.244-19.275-44.55-35.865-72.245-49.311-42.997-20.863-91.033-31.891-138.913-31.891-47.884 0-95.916 11.028-138.905 31.893-27.693 13.445-52.001 30.035-72.248 49.31-15.48 14.737-22.887 25.786-23.688 27.01-2.012 3.085-3.25 6.657-3.58 10.344-6.407 73.396 1.887 136.686 10.566 178.558-9.127 4.816-16.732 12.254-21.747 21.513-7.303 13.482-8.39 29.456-2.981 43.828 7.008 18.601 14.479 37.309 22.205 55.607 5.98 14.15 17.774 24.985 32.36 29.728 5.322 1.73 10.819 2.584 16.294 2.584 9.483 0 18.898-2.563 27.208-7.57l.063-.039c5.815 4.328 12.926 6.742 20.255 6.742 4.165 0 8.397-.775 12.495-2.411 17.312-6.913 25.772-26.622 18.86-43.934l-47.019-117.747c-3.349-8.386-9.763-14.967-18.061-18.529-6.453-2.77-13.444-3.447-20.178-2.041-7.418-45.177-9.436-90.931-5.996-136.176 3.52-4.417 11.096-13.061 23.835-23.628 3.188-2.645 3.629-7.373.984-10.561-2.646-3.188-7.374-3.628-10.561-.984-15.293 12.686-23.828 22.89-27.555 27.844-.855 1.137-1.369 2.493-1.482 3.911-3.884 48.554-1.623 97.693 6.682 146.143-4.385 3.447-7.868 7.953-10.13 13.222-.718 1.672-1.288 3.381-1.726 5.111-8.131-40.821-15.462-100.749-9.43-169.849.11-1.235.526-2.436 1.194-3.459 1.073-1.639 27.014-40.486 89.931-71.032 40.959-19.879 86.727-30.387 132.354-30.387 45.625 0 91.396 10.508 132.364 30.387 62.903 30.539 88.848 69.393 89.913 71.019.676 1.037 1.092 2.237 1.201 3.456 6.034 69.115-1.297 129.044-9.428 169.865-.438-1.73-1.009-3.439-1.726-5.111-2.262-5.269-5.744-9.774-10.13-13.222 8.305-48.453 10.566-97.595 6.682-146.153-.113-1.418-.628-2.775-1.484-3.913-6.559-8.713-16.994-19.186-28.628-28.733-15.848-13.005-33.666-24.348-52.959-33.713-38.93-18.896-82.433-28.883-125.805-28.883s-86.874 9.987-125.803 28.882c-9.968 4.835-19.762 10.341-29.109 16.363-3.482 2.244-4.486 6.885-2.242 10.367 2.244 3.483 6.885 4.486 10.367 2.243 8.841-5.697 18.104-10.904 27.533-15.478 36.901-17.91 78.138-27.377 119.254-27.377s82.354 9.467 119.254 27.377c36.445 17.691 62.696 40.944 74.842 56.277 3.441 45.252 1.423 91.01-5.996 136.192-6.734-1.406-13.725-.729-20.178 2.041-8.298 3.562-14.712 10.143-18.061 18.529l-47.018 117.748c-3.929 9.841-2.886 20.453 1.922 29.053-7.699 8.326-15.741 14.755-23.98 19.151h-22.214c-6.665-10.142-18.137-16.856-31.154-16.856h-26.89c-20.545 0-37.261 16.715-37.261 37.261v2.203c0 20.545 16.715 37.261 37.261 37.261h26.89c12.147 0 22.953-5.845 29.76-14.868h28.803c3.162 0 6.354-.686 9.223-1.978 26.858-12.062 46.247-33.991 58.007-50.731.421-.284.83-.585 1.238-.889.024.015.045.028.069.043 8.253 4.974 17.688 7.568 27.214 7.568 2.704 0 5.417-.209 8.111-.632 4.092-.643 6.888-4.48 6.246-8.573-.643-4.092-4.482-6.891-8.573-6.246-8.07 1.265-16.052-.065-23.203-3.817.477-.932.928-1.885 1.324-2.876l47.018-117.748c.393-.986.735-1.983 1.033-2.988 9.689 2.789 17.887 9.341 22.722 18.264 5.234 9.659 6.014 21.105 2.142 31.398-7.02 18.617-14.419 37.141-21.993 55.063-1.793 4.253-4.292 8.078-7.428 11.368-2.858 2.998-2.744 7.746.254 10.604 1.452 1.384 3.314 2.071 5.174 2.071 1.979 0 3.956-.779 5.43-2.325 4.395-4.61 7.892-9.958 10.39-15.885 7.648-18.095 15.12-36.803 22.211-55.608 5.407-14.373 4.317-30.349-2.991-43.834zm-423.436-37.948c4.616 1.981 8.184 5.642 10.047 10.308l47.018 117.748c3.846 9.631-.861 20.595-10.492 24.44-9.632 3.846-20.594-.861-24.44-10.492l-47.018-117.748c-1.863-4.665-1.797-9.777.184-14.393s5.642-8.184 10.308-10.047c4.665-1.863 9.776-1.798 14.393.184zm8.202 147.567c.395.989.844 1.938 1.319 2.868-8.948 4.66-19.408 5.561-29.063 2.421-10.446-3.396-18.896-11.161-23.18-21.3-7.65-18.116-15.047-36.64-21.984-55.056-3.875-10.297-3.098-21.741 2.133-31.397 4.836-8.927 13.039-15.484 22.725-18.272.298 1.005.639 2.003 1.033 2.988zm215.316 45.738c0 12.274-9.986 22.261-22.261 22.261h-26.89c-12.274 0-22.261-9.986-22.261-22.261v-2.203c0-12.274 9.986-22.261 22.261-22.261h26.89c12.274 0 22.261 9.986 22.261 22.261zm39.37 6.735c-.955.43-2.016.658-3.068.658h-22.041c.483-2.39.739-4.862.739-7.393v-2.203c0-1.836-.139-3.639-.397-5.404h18.328c1.167 0 2.319-.272 3.362-.796 10.051-5.041 19.739-12.494 28.879-22.185 2.093 1.466 4.379 2.722 6.852 3.71 2.672 1.067 5.401 1.761 8.131 2.12-10.323 11.819-23.971 23.942-40.785 31.493zm109.675-175.784-47.018 117.748c-3.845 9.631-14.807 14.337-24.44 10.492-9.63-3.846-14.337-14.81-10.492-24.44l47.018-117.748c1.863-4.666 5.431-8.326 10.047-10.308 2.383-1.023 4.898-1.535 7.416-1.535 2.359 0 4.721.45 6.978 1.351 4.666 1.863 8.326 5.431 10.308 10.047s2.046 9.728.183 14.393z"/><path d="m386.673 120.519c-1.297-15.561-10.685-28.263-23.917-32.362-3.536-1.095-9.155-2.093-15.843-.631-8.026 1.754-15.249 6.512-21.465 14.139-10.814 13.268-60.501 102.84-75.472 129.977-3.827 6.937-3.703 15.485.326 22.308 4.028 6.822 11.452 11.061 19.375 11.061h71.865c-.086 11.694-.176 22.914-.264 33.09-.107 12.406 9.899 22.586 22.287 22.693l.215.001c12.298 0 22.39-10.007 22.496-22.306.037-4.253.144-16.839.267-33.478h1.823c12.406 0 22.5-10.093 22.5-22.5s-10.093-22.5-22.5-22.5h-1.525c.349-60.502.293-93.964-.168-99.492zm1.693 114.491c4.135 0 7.5 3.364 7.5 7.5s-3.364 7.5-7.5 7.5h-9.269c-4.121 0-7.47 3.325-7.5 7.446-.145 20.268-.278 36.038-.32 40.902-.036 4.1-3.399 7.435-7.498 7.436h-.067c-4.135-.036-7.47-3.429-7.435-7.565.107-12.357.217-26.251.319-40.666.014-1.999-.77-3.92-2.178-5.338s-3.324-2.215-5.322-2.215h-79.419c-2.641 0-5.116-1.413-6.458-3.687-1.343-2.274-1.384-5.124-.108-7.436 29.138-52.817 65.993-117.965 73.965-127.746 6.097-7.48 12.073-9.365 16.547-9.365 1.857 0 3.455.325 4.696.709 7.357 2.279 12.62 9.847 13.406 19.279.249 2.989.59 20.695.073 105.7-.012 1.997.773 3.916 2.181 5.333s3.322 2.213 5.319 2.213z"/><path d="m351.542 125.606c-3.208-.902-6.628.417-8.395 3.243-13.774 22.032-45.237 78.292-54.552 95.011-1.294 2.323-1.262 5.157.085 7.45s3.807 3.701 6.466 3.701h54.146c4.125 0 7.475-3.331 7.5-7.455.276-45.978.352-79.645.212-94.799-.028-3.334-2.255-6.247-5.462-7.151zm-9.704 94.404h-33.911c8.813-15.745 22.645-40.308 34.145-60.085-.019 15.69-.097 36.041-.234 60.085z"/><path d="m196.572 189.357c-29.937 42.772-47.786 66.143-57.385 78.711-4.168 5.458-6.922 9.064-8.841 11.858-2.297 3.344-8.398 12.227-4.914 23.556 2.25 7.313 7.783 12.921 15.183 15.387 3.097 1.033 5.771 1.924 42.863 1.924 15.296 0 35.769-.16 60.85-.475 12.405-.157 22.371-10.376 22.215-22.781-.154-12.251-10.246-22.217-22.495-22.217l-.287.001c-18.813.237-37.964.385-53.961.422 10.252-13.737 24.436-33.148 43.638-60.584 12.158-17.371 20.091-33.807 23.58-48.853.171-.739.306-1.491.399-2.229l.934-7.311c.121-.943.182-1.902.182-2.852 0-39.074-31.789-70.863-70.863-70.863-33.786 0-63.029 24.036-69.534 57.152-2.391 12.174 5.567 24.023 17.742 26.415 12.172 2.392 24.022-5.569 26.414-17.741 2.371-12.067 13.043-20.826 25.377-20.826 13.721 0 25.198 11.01 25.835 24.651l-.567 4.438c-2.337 9.203-7.841 20.039-16.365 32.217zm-8.901-76.305c-19.484 0-36.348 13.851-40.096 32.934-.797 4.058-4.747 6.708-8.805 5.914-4.058-.797-6.71-4.747-5.914-8.805 5.127-26.1 28.18-45.043 54.815-45.043 30.803 0 55.863 25.06 55.863 55.863 0 .316-.021.636-.061.95l-.935 7.317c-.031.243-.076.492-.132.738-3.053 13.165-10.204 27.847-21.256 43.639-25.518 36.458-42.101 58.639-52.355 72.151-1.72 2.266-2.01 5.31-.749 7.859s3.856 4.167 6.701 4.175c18.087.054 43.957-.106 69.168-.423l.134-.001c4.082 0 7.444 3.322 7.496 7.406.052 4.135-3.27 7.542-7.405 7.594-25.019.314-45.428.474-60.661.474-31.064 0-36.633-.659-38.121-1.155-2.785-.928-4.769-2.905-5.588-5.567-1.249-4.061.768-7.489 2.941-10.653 1.705-2.483 4.367-5.969 8.407-11.259 9.656-12.642 27.628-36.174 57.744-79.202 9.715-13.881 16.022-26.545 18.746-37.641.068-.276.12-.556.156-.838l.7-5.481c.048-.378.068-.761.058-1.142-.563-21.948-18.888-39.804-40.851-39.804z"/></g></g></svg>