<svg height="512" viewBox="0 0 58 58" width="512" xmlns="http://www.w3.org/2000/svg"><g id="Page-1" fill="none" fill-rule="evenodd"><g id="035---Housing-Option" fill-rule="nonzero" transform="translate(0 -1)"><path id="Shape" d="m48 8v14l-7-7.01v-6.99c0-.55228475.4477153-1 1-1h5c.5522847 0 1 .44771525 1 1z" fill="#805333"/><path id="Shape" d="m52.04 30.04v26.96c-.0032948 1.1032019-.8967981 1.9967052-2 2h-42.04c-1.10320187-.0032948-1.9967052-.8967981-2-2v-27l23-23z" fill="#e57e25"/><path id="Shape" d="m15 56h-5c-.55228475 0-1-.4477153-1-1v-3c0-.5522847.44771525-1 1-1 .5522847 0 1 .4477153 1 1v2h4c.5522847 0 1 .4477153 1 1s-.4477153 1-1 1z" fill="#d25627"/><path id="Shape" d="m57.41 30.41-2.82 2.83c-.3930079.3899779-1.0269921.3899779-1.42 0l-24.17-24.17-24.17 24.17c-.39300794.3899779-1.02699206.3899779-1.42 0l-2.82-2.83c-.38772359-.3900375-.38772359-1.0199625 0-1.41l27.7-27.71c.3930079-.38997787 1.0269921-.38997787 1.42 0l11.29 11.29 7 7.01 9.41 9.41c.3877236.3900375.3877236 1.0199625 0 1.41z" fill="#a56a43"/><path id="Shape" d="m43 42.75v-7.5l1.69-1.45c.3618761-.3159799.4498353-.8437349.21-1.26l-2.36-4.08c-.2350323-.4187567-.7366924-.6084601-1.19-.45l-2.1.74-6.5-3.75-.41-2.18c-.086663-.4736154-.4985242-.818234-.98-.82h-4.72c-.4814758.001766-.893337.3463846-.98.82l-.41 2.18-6.5 3.75-2.1-.74c-.4533076-.1584601-.9549677.0312433-1.19.45l-2.36 4.08c-.2398353.4162651-.1518761.9440201.21 1.26l1.69 1.45v7.5l-1.69 1.45c-.3618761.3159799-.4498353.8437349-.21 1.26l2.36 4.08c.2350323.4187567.7366924.6084601 1.19.45l2.1-.74 6.5 3.75.41 2.18c.086663.4736154.4985242.818234.98.82h4.72c.4814758-.001766.893337-.3463846.98-.82l.41-2.18 6.5-3.75 2.1.74c.4533076.1584601.9549677-.0312433 1.19-.45l2.36-4.08c.2398353-.4162651.1518761-.9440201-.21-1.26zm-14 4.75c-4.6944204 0-8.5-3.8055796-8.5-8.5s3.8055796-8.5 8.5-8.5 8.5 3.8055796 8.5 8.5c-.0033092 4.693049-3.806951 8.4966908-8.5 8.5z" fill="#f3d55b"/></g></g></svg>