<svg height="512pt" viewBox="-21 0 512 512" width="512pt" xmlns="http://www.w3.org/2000/svg"><path d="m350.199219 343.210938c-12.71875-13.082032-30.507813-21.210938-50.199219-21.210938-22.898438 0-43.230469 11-56 28h-48c-12.769531-17-33.101562-28-56-28-19.691406 0-37.480469 8.128906-50.199219 21.210938l-9.800781 78.789062 70 80h140l70-80zm0 0" fill="#6e6e6e"/><path d="m220 30 240 80-240 80c0-21.410156 0-143.328125 0-160zm0 0" fill="#ff8597"/><path d="m430 492v10h-140v-10c0-38.660156 31.339844-70 70-70 38.65625 0 70 31.339844 70 70zm0 0" fill="#b5baf3"/><path d="m360 342c22.089844 0 40 17.910156 40 40s-17.910156 40-40 40-40-17.910156-40-40c0-18.710938 12.839844-34.421875 30.199219-38.789062 3.128906-.789063 6.421875-1.210938 9.800781-1.210938zm0 0" fill="#b5baf3"/><path d="m340 282c0 22.089844-17.910156 40-40 40s-40-17.910156-40-40 17.910156-40 40-40 40 17.910156 40 40zm0 0" fill="#6e6e6e"/><path d="m290 492v10h-140v-10c0-38.660156 31.339844-70 70-70 38.65625 0 70 31.339844 70 70zm0 0" fill="#b5baf3"/><path d="m244 350c9.71875 7.300781 16 18.921875 16 32 0 22.089844-17.910156 40-40 40s-40-17.910156-40-40c0-13.078125 6.28125-24.699219 16-32 6.691406-5.019531 15-8 24-8s17.308594 2.980469 24 8zm0 0" fill="#b5baf3"/><path d="m180 282c0 22.089844-17.910156 40-40 40s-40-17.910156-40-40 17.910156-40 40-40 40 17.910156 40 40zm0 0" fill="#6e6e6e"/><path d="m150 492v10h-140v-10c0-38.660156 31.339844-70 70-70 38.65625 0 70 31.339844 70 70zm0 0" fill="#b5baf3"/><path d="m89.800781 343.210938c17.359375 4.367187 30.199219 20.078124 30.199219 38.789062 0 22.089844-17.910156 40-40 40s-40-17.910156-40-40 17.910156-40 40-40c3.378906 0 6.671875.421875 9.800781 1.210938zm0 0" fill="#b5baf3"/><path d="m340 120c5.519531 0 10-4.480469 10-10s-4.480469-10-10-10-10 4.480469-10 10 4.480469 10 10 10zm0 0"/><path d="m0 492v10c0 5.523438 4.476562 10 10 10h420c5.523438 0 10-4.476562 10-10v-10c0-32.808594-19.558594-60.320312-46.683594-72.757812 10.230469-9.164063 16.683594-22.460938 16.683594-37.242188 0-27.570312-22.429688-50-50-50-2.214844 0-4.421875.15625-6.605469.445312-6.066406-5.453124-12.820312-9.882812-20.070312-13.207031 10.226562-9.164062 16.675781-22.460937 16.675781-37.238281 0-27.570312-22.429688-50-50-50s-50 22.429688-50 50c0 14.765625 6.4375 28.050781 16.644531 37.210938-9.242187 4.230468-17.644531 10.238281-24.773437 17.816406-3.777344-1.84375-7.753906-3.199219-11.871094-4.03125v-135.789063l233.160156-77.71875c4.085938-1.363281 6.839844-5.183593 6.839844-9.488281s-2.753906-8.125-6.839844-9.488281l-233.160156-77.71875v-12.792969c0-5.523438-4.476562-10-10-10s-10 4.476562-10 10v322.996094c-4.117188.832031-8.09375 2.1875-11.867188 4.03125-7.132812-7.578125-15.535156-13.589844-24.777343-17.816406 10.207031-9.160157 16.644531-22.445313 16.644531-37.210938 0-27.570312-22.429688-50-50-50s-50 22.429688-50 50c0 14.777344 6.449219 28.074219 16.675781 37.238281-7.25 3.324219-14.003906 7.753907-20.070312 13.207031-2.183594-.289062-4.390625-.445312-6.605469-.445312-27.570312 0-50 22.429688-50 50 0 14.800781 6.46875 28.113281 16.722656 37.277344-27.539062 12.652344-46.722656 40.480468-46.722656 72.722656zm190-110c0-16.972656 13.804688-30 30-30s30 13.027344 30 30c0 16.542969-13.457031 30-30 30s-30-13.457031-30-30zm-30 110c0-33.085938 26.914062-60 60-60 33.097656 0 60 26.777344 60 60zm260 0h-120c0-33.085938 26.914062-60 60-60 33.097656 0 60 26.777344 60 60zm-30-110c0 16.542969-13.457031 30-30 30s-30-13.457031-30-30c0-16.601562 13.398438-30 30-30 16.542969 0 30 13.457031 30 30zm-120-100c0-16.542969 13.457031-30 30-30s30 13.457031 30 30-13.457031 30-30 30-30-13.457031-30-30zm61.492188 58.902344c-13.171876 9.128906-21.492188 24.300781-21.492188 41.097656 0 14.800781 6.46875 28.113281 16.722656 37.277344-15.546875 7.144531-28.429687 19.121094-36.699218 34.003906-8.152344-14.695312-20.886719-26.789062-36.707032-34.039062 10.230469-9.164063 16.683594-22.460938 16.683594-37.242188 0-12.238281-4.347656-23.695312-12.152344-32.679688 11.164063-11.085937 26.097656-17.320312 42.152344-17.320312 11.320312 0 22.128906 3.101562 31.492188 8.902344zm96.886718-230.902344-198.378906 66.125v-90.082031l68.289062 22.753906c5.238282 1.746094 10.902344-1.085937 12.648438-6.324219 1.746094-5.242187-1.085938-10.902344-6.328125-12.648437l-74.609375-24.863281v-21.085938zm-318.378906 172c0-16.542969 13.457031-30 30-30s30 13.457031 30 30-13.457031 30-30 30-30-13.457031-30-30zm72.152344 67.320312c-7.804688 8.984376-12.152344 20.441407-12.152344 32.679688 0 14.800781 6.46875 28.113281 16.722656 37.277344-15.546875 7.144531-28.429687 19.121094-36.699218 34.003906-8.152344-14.695312-20.886719-26.789062-36.707032-34.039062 10.230469-9.164063 16.683594-22.460938 16.683594-37.242188 0-16.796875-8.320312-31.96875-21.492188-41.097656 9.363282-5.800782 20.171876-8.902344 31.492188-8.902344 16.054688 0 30.988281 6.234375 42.152344 17.320312zm-132.152344 32.679688c0-16.542969 13.457031-30 30-30 16.601562 0 30 13.398438 30 30 0 16.542969-13.457031 30-30 30s-30-13.457031-30-30zm30 50c33.097656 0 60 26.777344 60 60h-120c0-33.085938 26.914062-60 60-60zm0 0"/></svg>