<?xml version="1.0" encoding="iso-8859-1"?>
<!-- Generator: Adobe Illustrator 19.0.0, SVG Export Plug-In . SVG Version: 6.00 Build 0)  -->
<svg version="1.1" id="Capa_1" xmlns="http://www.w3.org/2000/svg" xmlns:xlink="http://www.w3.org/1999/xlink" x="0px" y="0px"
	 viewBox="0 0 511.898 511.898" style="enable-background:new 0 0 511.898 511.898;" xml:space="preserve">
<g>
	<g>
		<path d="M501.832,258.471L261.783,2.419c-3.025-3.225-8.65-3.225-11.674,0L10.06,258.471c-2.953,3.153-2.873,8.082,0.176,11.13
			l24.005,24.005c3.129,3.129,8.186,3.129,11.314,0l10.354-10.338V504c0,4.417,3.585,7.898,8.002,7.898h256.052h96.019h32.007
			c4.417,0,8.002-3.473,8.002-7.898V283.268l10.346,10.346c1.56,1.56,3.609,2.344,5.657,2.344c2.048,0,4.097-0.784,5.657-2.344
			l24.005-24.005C504.713,266.552,504.793,261.631,501.832,258.471z M407.981,495.887h-80.016V351.857h80.016V495.887z
			 M439.987,495.895h-16.003v-0.008V343.968c0-4.417-3.585-8.106-8.002-8.106h-96.019c-4.417,0-8.002,3.689-8.002,8.106v151.927
			H71.913V271.849h368.075V495.895z M82.187,255.838L255.95,67.592l173.763,188.246H82.187z M471.994,276.642l-18.22-18.22
			L261.831,50.476c-3.033-3.281-8.73-3.281-11.762,0L58.126,258.423l-18.22,18.22l-12.867-12.867L255.95,19.59l228.911,244.178
			L471.994,276.642z"/>
	</g>
</g>
<g>
	<g>
		<path d="M255.95,119.922c-22.06,0-40.008,17.948-40.008,40.008s17.948,40.008,40.008,40.008s40.008-17.948,40.008-40.008
			S278.01,119.922,255.95,119.922z M255.95,183.935c-13.235,0-24.005-10.77-24.005-24.005s10.77-24.005,24.005-24.005
			s24.005,10.762,24.005,24.005C279.955,173.165,269.185,183.935,255.95,183.935z"/>
	</g>
</g>
<g>
	<g>
		<rect x="223.943" y="215.83" width="64.013" height="16.003"/>
	</g>
</g>
<g>
	<g>
		<rect x="303.96" y="215.942" width="16.003" height="16.003"/>
	</g>
</g>
<g>
	<g>
		<rect x="191.937" y="215.942" width="16.003" height="16.003"/>
	</g>
</g>
<g>
	<g>
		<path d="M287.956,295.846H95.917c-4.417,0-8.002,3.585-8.002,8.002V463.88c0,4.417,3.585,8.002,8.002,8.002h192.039
			c4.417,0,8.002-3.585,8.002-8.002V303.848C295.958,299.431,292.373,295.846,287.956,295.846z M183.935,455.879h-80.016v-64.013
			h80.016V455.879z M183.935,375.862h-80.016v-64.013h80.016V375.862z M279.955,455.879h-80.016v-64.013h80.016V455.879z
			 M279.955,375.862h-80.016v-64.013h80.016V375.862z"/>
	</g>
</g>
<g>
	<g>
		<rect x="319.963" y="295.846" width="96.019" height="16.003"/>
	</g>
</g>
<g>
	<g>
		<rect x="375.974" y="415.982" width="16.003" height="16.003"/>
	</g>
</g>
<g>
</g>
<g>
</g>
<g>
</g>
<g>
</g>
<g>
</g>
<g>
</g>
<g>
</g>
<g>
</g>
<g>
</g>
<g>
</g>
<g>
</g>
<g>
</g>
<g>
</g>
<g>
</g>
<g>
</g>
</svg>
