<?xml version="1.0" encoding="iso-8859-1"?>
<!-- Generator: Adobe Illustrator 21.0.0, SVG Export Plug-In . SVG Version: 6.00 Build 0)  -->
<svg xmlns="http://www.w3.org/2000/svg" xmlns:xlink="http://www.w3.org/1999/xlink" version="1.1" id="Capa_1" x="0px" y="0px" viewBox="0 0 42.87 42.87" style="enable-background:new 0 0 42.87 42.87;" xml:space="preserve" width="512" height="512">
<g>
	<g id="_Group__611_">
		
			<ellipse id="_Ellipse__704_" style="opacity:0.15;fill:#45413C;enable-background:new    ;" cx="21.31" cy="40.88" rx="15.27" ry="1.99"/>
		<path id="_Path__726_" style="fill:#8CA4B8;" d="M32.93,0.5c-0.359-0.006-0.654,0.281-0.66,0.64c0,0.007,0,0.013,0,0.02v2.45H7.37    C7.006,3.605,6.706,3.896,6.7,4.26c0,0.003,0,0.007,0,0.01v30.47h32.2c1.465,0,2.654-1.185,2.66-2.65V1.16    c0-0.365-0.295-0.66-0.66-0.66L32.93,0.5z"/>
		<path id="_Path_2_716_" style="fill:#ADC4D9;" d="M41.56,1.16c0-0.365-0.295-0.66-0.66-0.66h-8    c-0.359-0.006-0.654,0.281-0.66,0.64c0,0.007,0,0.013,0,0.02v2.45H7.37C7.006,3.605,6.706,3.896,6.7,4.26c0,0.003,0,0.007,0,0.01    v3.32c0-0.365,0.295-0.66,0.66-0.66c0.003,0,0.007,0,0.01,0h23.94c0.552,0,1-0.448,1-1V4.48c0.02-0.332,0.288-0.595,0.62-0.61h8    c0.365,0,0.66,0.295,0.66,0.66L41.56,1.16z"/>
		<path style="fill:#45413C;" d="M38.9,35.24H6.7c-0.276,0-0.5-0.224-0.5-0.5V4.27c0.009-0.656,0.505-1.171,1.177-1.16H31.77V1.16    C31.781,0.504,32.294,0,32.92,0c0.004,0,0.009,0,0.013,0H40.9c0.64,0,1.16,0.521,1.16,1.16v30.93    C42.053,33.828,40.635,35.24,38.9,35.24z M7.2,34.24h31.7c1.187,0,2.155-0.966,2.16-2.152V1.16C41.06,1.072,40.988,1,40.9,1h-7.97    c-0.003,0-0.005,0-0.008,0c0,0-0.001,0-0.002,0c-0.082,0-0.149,0.066-0.15,0.148V3.61c0,0.276-0.224,0.5-0.5,0.5H7.37    C7.289,4.099,7.202,4.179,7.2,4.267V34.24z"/>
		<path id="_Path_4_699_" style="fill:#C0DCEB;" d="M36.17,32.09c0,1.464,1.186,2.65,2.65,2.65c0,0,0,0,0,0H3.97    c-1.465,0-2.654-1.185-2.66-2.65V9.18c0.005-0.362,0.298-0.655,0.66-0.66H35.5c0.366,0,0.665,0.294,0.67,0.66L36.17,32.09z"/>
		<path id="_Path_5_684_" style="fill:#ADC4D9;" d="M36.17,32.09v-1.36H3.97c-1.465,0-2.654-1.185-2.66-2.65v4    c0.006,1.465,1.195,2.65,2.66,2.65h34.85C37.36,34.73,36.176,33.55,36.17,32.09z"/>
		<path style="fill:#45413C;" d="M38.82,35.24H3.97c-1.736,0-3.154-1.412-3.16-3.148V9.18c0.009-0.645,0.516-1.151,1.153-1.16H35.5    c0.635,0,1.16,0.517,1.17,1.152V32.09c0,1.186,0.964,2.15,2.149,2.15c0.276,0,0.5,0.224,0.5,0.5S39.096,35.24,38.82,35.24z     M1.97,9.02C1.885,9.021,1.812,9.095,1.81,9.188V32.09c0.004,1.185,0.974,2.15,2.16,2.15h32.55c-0.526-0.563-0.85-1.32-0.85-2.15    V9.18c-0.001-0.085-0.078-0.16-0.17-0.16H1.97z"/>
	</g>
</g>















</svg>
