<?xml version="1.0" encoding="iso-8859-1"?>
<!-- Generator: Adobe Illustrator 19.0.0, SVG Export Plug-In . SVG Version: 6.00 Build 0)  -->
<svg version="1.1" id="Layer_1" xmlns="http://www.w3.org/2000/svg" xmlns:xlink="http://www.w3.org/1999/xlink" x="0px" y="0px"
	 viewBox="0 0 512 512" style="enable-background:new 0 0 512 512;" xml:space="preserve">
<circle style="fill:#EFF2FA;" cx="256" cy="256" r="219.429"/>
<circle style="fill:#C7CFE2;" cx="256" cy="256" r="91.429"/>
<path style="fill:#707487;" d="M256,0C114.615,0,0,114.615,0,256c0,141.384,114.615,256,256,256s256-114.616,256-256
	C512,114.615,397.385,0,256,0z M256,475.429c-121.187,0-219.429-98.241-219.429-219.429S134.813,36.571,256,36.571
	S475.429,134.813,475.429,256S377.187,475.429,256,475.429z"/>
<path style="fill:#C7CFE2;" d="M256,36.571C134.813,36.571,36.571,134.813,36.571,256S134.813,475.429,256,475.429
	S475.429,377.187,475.429,256S377.187,36.571,256,36.571z M256,457.143c-111.088,0-201.143-90.055-201.143-201.143
	S144.912,54.857,256,54.857S457.143,144.912,457.143,256S367.088,457.143,256,457.143z"/>
<path style="fill:#464655;" d="M256,256c-5.054,0-9.143-4.089-9.143-9.143V137.143c0-5.054,4.089-9.143,9.143-9.143
	c5.054,0,9.143,4.089,9.143,9.143v109.714C265.143,251.911,261.054,256,256,256z"/>
<path style="fill:#707487;" d="M324.651,384.035c-3.161,0-6.232-1.634-7.929-4.571L257.222,276.41
	c-2.527-4.375-1.026-9.965,3.349-12.491c4.349-2.527,9.955-1.035,12.491,3.349l59.501,103.054c2.527,4.375,1.026,9.965-3.349,12.491
	C327.777,383.643,326.206,384.035,324.651,384.035z"/>
<circle style="fill:#5B5D6E;" cx="256" cy="256" r="27.429"/>
<g>
	<path style="fill:#AFB9D2;" d="M100.571,265.143H73.143c-5.054,0-9.143-4.089-9.143-9.143c0-5.054,4.089-9.143,9.143-9.143h27.429
		c5.054,0,9.143,4.089,9.143,9.143C109.714,261.054,105.625,265.143,100.571,265.143z"/>
	<path style="fill:#AFB9D2;" d="M438.857,265.143h-27.429c-5.054,0-9.143-4.089-9.143-9.143c0-5.054,4.089-9.143,9.143-9.143h27.429
		c5.054,0,9.143,4.089,9.143,9.143C448,261.054,443.911,265.143,438.857,265.143z"/>
	<path style="fill:#AFB9D2;" d="M256,109.714c-5.054,0-9.143-4.089-9.143-9.143V73.143c0-5.054,4.089-9.143,9.143-9.143
		c5.054,0,9.143,4.089,9.143,9.143v27.429C265.143,105.625,261.054,109.714,256,109.714z"/>
	<path style="fill:#AFB9D2;" d="M256,448c-5.054,0-9.143-4.089-9.143-9.143v-27.429c0-5.054,4.089-9.143,9.143-9.143
		c5.054,0,9.143,4.089,9.143,9.143v27.429C265.143,443.911,261.054,448,256,448z"/>
</g>
<g>
	<path style="fill:#C7CFE2;" d="M164.562,423.501c-1.553,0-3.125-0.393-4.562-1.223c-4.375-2.527-5.875-8.117-3.349-12.491
		l4.571-7.92c2.518-4.366,8.125-5.866,12.491-3.349c4.375,2.527,5.875,8.117,3.349,12.491l-4.571,7.92
		C170.794,421.857,167.723,423.501,164.562,423.501z"/>
	<path style="fill:#C7CFE2;" d="M342.848,114.705c-1.553,0-3.125-0.393-4.562-1.223c-4.375-2.527-5.875-8.117-3.349-12.491
		l4.571-7.92c2.527-4.375,8.125-5.875,12.491-3.349c4.375,2.527,5.875,8.117,3.349,12.491l-4.571,7.92
		C349.08,113.063,346.009,114.705,342.848,114.705z"/>
	<path style="fill:#C7CFE2;" d="M105.553,178.286c-1.553,0-3.125-0.393-4.562-1.223l-7.92-4.571
		c-4.375-2.527-5.875-8.117-3.349-12.491c2.518-4.366,8.125-5.866,12.491-3.349l7.92,4.571c4.375,2.527,5.875,8.117,3.349,12.491
		C111.786,176.643,108.714,178.286,105.553,178.286z"/>
	<path style="fill:#C7CFE2;" d="M414.349,356.571c-1.553,0-3.125-0.393-4.562-1.223l-7.92-4.571
		c-4.375-2.527-5.875-8.117-3.349-12.491c2.527-4.375,8.117-5.875,12.491-3.349l7.92,4.571c4.375,2.527,5.875,8.117,3.349,12.491
		C420.581,354.929,417.509,356.571,414.349,356.571z"/>
	<path style="fill:#C7CFE2;" d="M347.438,423.501c-3.161,0-6.232-1.643-7.929-4.571l-4.571-7.92
		c-2.527-4.375-1.026-9.965,3.349-12.491c4.358-2.518,9.955-1.018,12.491,3.349l4.571,7.92c2.527,4.375,1.026,9.965-3.349,12.491
		C350.562,423.107,348.991,423.501,347.438,423.501z"/>
	<path style="fill:#C7CFE2;" d="M169.152,114.705c-3.161,0-6.232-1.643-7.929-4.571l-4.571-7.92
		c-2.527-4.375-1.026-9.965,3.349-12.491c4.349-2.527,9.955-1.026,12.491,3.349l4.571,7.92c2.527,4.375,1.026,9.965-3.349,12.491
		C172.277,114.312,170.705,114.705,169.152,114.705z"/>
	<path style="fill:#C7CFE2;" d="M406.447,178.286c-3.161,0-6.232-1.643-7.929-4.571c-2.527-4.375-1.026-9.965,3.349-12.491
		l7.92-4.571c4.358-2.518,9.955-1.018,12.491,3.349c2.527,4.375,1.026,9.965-3.349,12.491l-7.92,4.571
		C409.571,177.893,408,178.286,406.447,178.286z"/>
	<path style="fill:#C7CFE2;" d="M97.651,356.571c-3.161,0-6.232-1.643-7.929-4.571c-2.527-4.375-1.026-9.965,3.349-12.491
		l7.92-4.571c4.366-2.527,9.955-1.026,12.491,3.349c2.527,4.375,1.026,9.965-3.349,12.491l-7.92,4.571
		C100.777,356.178,99.206,356.571,97.651,356.571z"/>
</g>
<g>
</g>
<g>
</g>
<g>
</g>
<g>
</g>
<g>
</g>
<g>
</g>
<g>
</g>
<g>
</g>
<g>
</g>
<g>
</g>
<g>
</g>
<g>
</g>
<g>
</g>
<g>
</g>
<g>
</g>
</svg>
