<?xml version="1.0" encoding="iso-8859-1"?>
<!-- Generator: Adobe Illustrator 19.0.0, SVG Export Plug-In . SVG Version: 6.00 Build 0)  -->
<svg version="1.1" id="Layer_1" xmlns="http://www.w3.org/2000/svg" xmlns:xlink="http://www.w3.org/1999/xlink" x="0px" y="0px"
	 viewBox="0 0 512 512" style="enable-background:new 0 0 512 512;" xml:space="preserve">
<circle style="fill:#FAD97F;" cx="256" cy="256" r="256"/>
<g>
	<polygon style="fill:#3F4A5A;" points="266.633,115.606 245.354,115.606 239.14,146.594 272.853,146.594 	"/>
	<polygon style="fill:#3F4A5A;" points="195.042,129.07 176.594,139.713 186.705,169.71 215.905,152.787 	"/>
	<polygon style="fill:#3F4A5A;" points="139.75,176.587 129.116,195.003 152.834,215.882 169.713,186.692 	"/>
	<polygon style="fill:#3F4A5A;" points="115.613,245.354 115.629,266.646 146.624,272.86 146.624,239.15 	"/>
	<polygon style="fill:#3F4A5A;" points="129.116,316.987 139.75,335.4 169.713,325.298 152.834,296.121 	"/>
	<polygon style="fill:#3F4A5A;" points="176.594,372.267 195.042,382.89 215.905,359.186 186.705,342.28 	"/>
	<polygon style="fill:#3F4A5A;" points="245.354,396.394 266.633,396.394 272.853,365.393 239.15,365.393 	"/>
	<polygon style="fill:#3F4A5A;" points="316.987,382.89 335.416,372.267 325.302,342.28 296.111,359.186 	"/>
	<polygon style="fill:#3F4A5A;" points="372.264,335.4 382.903,316.987 359.173,296.121 342.317,325.298 	"/>
	<polygon style="fill:#3F4A5A;" points="396.387,266.646 396.387,245.354 365.406,239.15 365.406,272.86 	"/>
	<polygon style="fill:#3F4A5A;" points="382.903,195.003 372.264,176.607 342.317,186.692 359.173,215.882 	"/>
	<polygon style="fill:#3F4A5A;" points="335.416,139.713 316.951,129.103 296.111,152.787 325.302,169.71 	"/>
</g>
<g>
	<path style="fill:#333C49;" d="M255.99,145.335c-61.113,0-110.671,49.515-110.671,110.661c0,61.143,49.558,110.661,110.671,110.661
		c61.163,0,110.708-49.519,110.708-110.661C366.698,194.851,317.153,145.335,255.99,145.335z M255.993,340.229
		c-46.499,0-84.219-37.713-84.219-84.229c0-46.523,37.72-84.232,84.219-84.232c46.536,0,84.245,37.71,84.245,84.232
		C340.239,302.516,302.529,340.229,255.993,340.229z"/>
	<path style="fill:#333C49;" d="M298.681,298.714c-10.93,10.914-26.026,17.659-42.694,17.659c-33.323,0-60.353-27.037-60.353-60.353
		c0-25.164,15.39-46.734,37.274-55.788l23.08,55.788L298.681,298.714z"/>
</g>
<path style="fill:#F67656;" d="M316.366,256h-60.373v-60.366C289.33,195.634,316.366,222.664,316.366,256z"/>
<path style="fill:#FFFFFF;" d="M316.366,256c0,16.671-6.752,31.76-17.682,42.698L255.993,256H316.366z"/>
<path style="fill:#D65A38;" d="M255.987,195.63v60.386l-23.08-55.788C240.009,197.259,247.818,195.63,255.987,195.63z"/>
<g>
</g>
<g>
</g>
<g>
</g>
<g>
</g>
<g>
</g>
<g>
</g>
<g>
</g>
<g>
</g>
<g>
</g>
<g>
</g>
<g>
</g>
<g>
</g>
<g>
</g>
<g>
</g>
<g>
</g>
</svg>
